<?xml version="1.0" encoding="utf-8"?>
<!-- Generator: Adobe Illustrator 27.0.0, SVG Export Plug-In . SVG Version: 6.00 Build 0)  -->
<svg version="1.1" id="Capa_1" xmlns="http://www.w3.org/2000/svg" xmlns:xlink="http://www.w3.org/1999/xlink" x="0px" y="0px"
	 viewBox="0 0 31.9 32" style="enable-background:new 0 0 31.9 32;" xml:space="preserve">
<style type="text/css">
	.st0{fill:#F6E2BB;}
	.st1{fill:#666565;}
</style>
<circle class="st0" cx="15.9" cy="15.9" r="15.9"/>
<g transform="translate(0.000000,1122.000000) scale(0.100000,-0.100000)">
	<path class="st1" d="M253.4,11151.2c-4.6-1.2-8.8-3.8-55.9-35.5c-98.9-66.3-114.3-76.8-115.1-77.2c-0.4,0-1.3,2.1-2.1,5.4
		c-1.7,10-2.9,12.1-7.1,16.7c-6.7,6.7-13.3,7.9-24.6,4.2c-8.8-2.5-15-10.8-15-19.6c0-4.6,12.5-48.4,15.4-52.6
		c2.1-3.3,4.6-5.4,10.4-8.8c3.8-2.1,5.8-2.9,10-2.9c2.9,0,6.7-0.4,8.8-1.3l3.8-1.2l20,13.8c11.3,7.5,54.2,36.7,95.5,65.1
		c41.7,27.9,76.8,52.6,78.4,53.8c10.8,10.4,7.5,30.9-6.7,38C265.1,11151.6,257.2,11152.4,253.4,11151.2z"/>
</g>
</svg>
